<svg xmlns="http://www.w3.org/2000/svg" xmlns:xlink="http://www.w3.org/1999/xlink" contentStyleType="text/css" height="186px" preserveAspectRatio="none" style="width:597px;height:186px;background:#FFFFFF;" version="1.1" viewBox="0 0 597 186" width="597px" zoomAndPan="magnify"><defs/><g><rect fill="#FFFFFF" height="49.1328" style="stroke:#181818;stroke-width:1.0;" width="10" x="293.4912" y="112.4297"/><line style="stroke:#181818;stroke-width:0.5;stroke-dasharray:5.0,5.0;" x1="36" x2="36" y1="81.2969" y2="179.5625"/><line style="stroke:#181818;stroke-width:0.5;stroke-dasharray:5.0,5.0;" x1="297.5308" x2="297.5308" y1="81.2969" y2="179.5625"/><text fill="#000000" font-family="sans-serif" font-size="14" lengthAdjust="spacing" textLength="57.5176" x="5" y="77.9951">Takar&#237;t&#243;</text><ellipse cx="36.7588" cy="13.5" fill="#E2E2F0" rx="8" ry="8" style="stroke:#181818;stroke-width:0.5;"/><path d="M36.7588,21.5 L36.7588,48.5 M23.7588,29.5 L49.7588,29.5 M36.7588,48.5 L23.7588,63.5 M36.7588,48.5 L49.7588,63.5 " fill="none" style="stroke:#181818;stroke-width:0.5;"/><rect fill="#E2E2F0" height="30.2969" rx="2.5" ry="2.5" style="stroke:#181818;stroke-width:0.5;" width="113.9209" x="241.5308" y="50"/><text fill="#000000" font-family="sans-serif" font-size="14" lengthAdjust="spacing" textLength="99.9209" x="248.5308" y="69.9951">sp : SnowPlow</text><rect fill="#FFFFFF" height="49.1328" style="stroke:#181818;stroke-width:1.0;" width="10" x="293.4912" y="112.4297"/><polygon fill="#181818" points="281.4912,108.4297,291.4912,112.4297,281.4912,116.4297" style="stroke:#181818;stroke-width:1.0;"/><line style="stroke:#181818;stroke-width:1.0;" x1="36.7588" x2="287.4912" y1="112.4297" y2="112.4297"/><text fill="#000000" font-family="sans-serif" font-size="13" lengthAdjust="spacing" textLength="237.7324" x="43.7588" y="107.3638">changeAttachment(newAttachment)</text><path d="M308,125.4297 L308,150.4297 L590,150.4297 L590,135.4297 L580,125.4297 L308,125.4297 " fill="#FEFFDD" style="stroke:#181818;stroke-width:0.5;"/><path d="M580,125.4297 L580,135.4297 L590,135.4297 L580,125.4297 " fill="#FEFFDD" style="stroke:#181818;stroke-width:0.5;"/><text fill="#000000" font-family="sans-serif" font-size="13" lengthAdjust="spacing" textLength="261.2314" x="314" y="142.4966">A bels&#337; Attachment referencia friss&#237;t&#233;se</text><polygon fill="#181818" points="47.7588,157.5625,37.7588,161.5625,47.7588,165.5625" style="stroke:#181818;stroke-width:1.0;"/><line style="stroke:#181818;stroke-width:1.0;stroke-dasharray:2.0,2.0;" x1="41.7588" x2="297.4912" y1="161.5625" y2="161.5625"/><!--SRC=[JKxB3OCm3Brd2ejJUs013fNO08aiuAO6B4A24hUeOtIC7dhg2AXxrVH2VR2UxVTn7ZdCc722B7TFsXCxkKxU67GI4nGMHqphIzPt0PZ16gKBEvun21HvXWhQ49V6n-L7Q1jZB9Gd1Nfo0uQUQX5qmqH13e6MVJfk8Nn3eKq6MY4gJjmF0h7JPGKrdCddpmDs6IJgA55mZD0bpdbxxvd9Q6IfoTPSwC_u2m00]--></g></svg>