<svg xmlns="http://www.w3.org/2000/svg" xmlns:xlink="http://www.w3.org/1999/xlink" contentStyleType="text/css" height="172px" preserveAspectRatio="none" style="width:440px;height:172px;background:#FFFFFF;" version="1.1" viewBox="0 0 440 172" width="440px" zoomAndPan="magnify"><defs/><g><rect fill="#FFFFFF" height="24.5664" style="stroke:#181818;stroke-width:1.0;" width="10" x="149.2412" y="122.9961"/><line style="stroke:#181818;stroke-width:0.5;stroke-dasharray:5.0,5.0;" x1="33" x2="33" y1="81.2969" y2="165.5625"/><line style="stroke:#181818;stroke-width:0.5;stroke-dasharray:5.0,5.0;" x1="154.1499" x2="154.1499" y1="81.2969" y2="165.5625"/><text fill="#000000" font-family="sans-serif" font-size="14" lengthAdjust="spacing" textLength="50.7773" x="5" y="77.9951">J&#225;t&#233;kos</text><ellipse cx="33.3887" cy="13.5" fill="#E2E2F0" rx="8" ry="8" style="stroke:#181818;stroke-width:0.5;"/><path d="M33.3887,21.5 L33.3887,48.5 M20.3887,29.5 L46.3887,29.5 M33.3887,48.5 L20.3887,63.5 M33.3887,48.5 L46.3887,63.5 " fill="none" style="stroke:#181818;stroke-width:0.5;"/><rect fill="#E2E2F0" height="30.2969" rx="2.5" ry="2.5" style="stroke:#181818;stroke-width:0.5;" width="78.1826" x="115.1499" y="50"/><text fill="#000000" font-family="sans-serif" font-size="14" lengthAdjust="spacing" textLength="64.1826" x="122.1499" y="69.9951">g : Game</text><rect fill="#FFFFFF" height="24.5664" style="stroke:#181818;stroke-width:1.0;" width="10" x="149.2412" y="122.9961"/><polygon fill="#181818" points="137.2412,118.9961,147.2412,122.9961,137.2412,126.9961" style="stroke:#181818;stroke-width:1.0;"/><line style="stroke:#181818;stroke-width:1.0;" x1="33.3887" x2="143.2412" y1="122.9961" y2="122.9961"/><text fill="#000000" font-family="sans-serif" font-size="13" lengthAdjust="spacing" textLength="96.8525" x="40.3887" y="117.9302">saveProgress()</text><path d="M164,96.2969 L164,136.2969 L433,136.2969 L433,106.2969 L423,96.2969 L164,96.2969 " fill="#FEFFDD" style="stroke:#181818;stroke-width:0.5;"/><path d="M423,96.2969 L423,106.2969 L433,106.2969 L423,96.2969 " fill="#FEFFDD" style="stroke:#181818;stroke-width:0.5;"/><text fill="#000000" font-family="sans-serif" font-size="13" lengthAdjust="spacing" textLength="248.4854" x="170" y="113.3638">MapModel &#233;s Vehicle lista &#225;llapot&#225;nak</text><text fill="#000000" font-family="sans-serif" font-size="13" lengthAdjust="spacing" textLength="130.5459" x="170" y="128.4966">perzisztens t&#225;rol&#225;sa</text><polygon fill="#181818" points="44.3887,143.5625,34.3887,147.5625,44.3887,151.5625" style="stroke:#181818;stroke-width:1.0;"/><line style="stroke:#181818;stroke-width:1.0;stroke-dasharray:2.0,2.0;" x1="38.3887" x2="153.2412" y1="147.5625" y2="147.5625"/><!--SRC=[HOun3eCm34NtdC9YQWSkmD0L2GcfKwSk5bXW4P8eTf7ARHWvHovMjqizMDR_NtvV5Wu9CwuW-lPaE_EWhzKx73HcgBfoQ3cNA1MWGESih3nmmg1GJT10YolzlDQv3keRj2OARdJFSSeaShb-V_66IfO1cn3jp3pDsa2FgOyZUIYdm8Dc7go5Pr64SdYFAMev0YxFa2ZlBBjI430jHryEGTT2RT3EZVIdV000]--></g></svg>