<svg xmlns="http://www.w3.org/2000/svg" xmlns:xlink="http://www.w3.org/1999/xlink" contentStyleType="text/css" height="348px" preserveAspectRatio="none" style="width:693px;height:348px;background:#FFFFFF;" version="1.1" viewBox="0 0 693 348" width="693px" zoomAndPan="magnify"><defs/><g><rect fill="#FFFFFF" height="210.8281" style="stroke:#181818;stroke-width:1.0;" width="10" x="137.6025" y="112.4297"/><rect fill="#FFFFFF" height="164.6953" style="stroke:#181818;stroke-width:1.0;" width="10" x="269.4805" y="144.5625"/><rect fill="#FFFFFF" height="73.4297" style="stroke:#181818;stroke-width:1.0;" width="10" x="440.6299" y="179.6953"/><line style="stroke:#181818;stroke-width:0.5;stroke-dasharray:5.0,5.0;" x1="35" x2="35" y1="81.2969" y2="341.2578"/><line style="stroke:#181818;stroke-width:0.5;stroke-dasharray:5.0,5.0;" x1="142.021" x2="142.021" y1="81.2969" y2="341.2578"/><line style="stroke:#181818;stroke-width:0.5;stroke-dasharray:5.0,5.0;" x1="274.1841" x2="274.1841" y1="81.2969" y2="341.2578"/><line style="stroke:#181818;stroke-width:0.5;stroke-dasharray:5.0,5.0;" x1="445.418" x2="445.418" y1="81.2969" y2="341.2578"/><line style="stroke:#181818;stroke-width:0.5;stroke-dasharray:5.0,5.0;" x1="609.0889" x2="609.0889" y1="221.3438" y2="341.2578"/><text fill="#000000" font-family="sans-serif" font-size="14" lengthAdjust="spacing" textLength="55.3027" x="5" y="77.9951">tesztel&#337;</text><ellipse cx="35.6514" cy="13.5" fill="#E2E2F0" rx="8" ry="8" style="stroke:#181818;stroke-width:0.5;"/><path d="M35.6514,21.5 L35.6514,48.5 M22.6514,29.5 L48.6514,29.5 M35.6514,48.5 L22.6514,63.5 M35.6514,48.5 L48.6514,63.5 " fill="none" style="stroke:#181818;stroke-width:0.5;"/><rect fill="#E2E2F0" height="30.2969" rx="2.5" ry="2.5" style="stroke:#181818;stroke-width:0.5;" width="95.1631" x="95.021" y="50"/><text fill="#000000" font-family="sans-serif" font-size="14" lengthAdjust="spacing" textLength="81.1631" x="102.021" y="69.9951">road : Road</text><rect fill="#E2E2F0" height="30.2969" rx="2.5" ry="2.5" style="stroke:#181818;stroke-width:0.5;" width="148.5928" x="200.1841" y="50"/><text fill="#000000" font-family="sans-serif" font-size="14" lengthAdjust="spacing" textLength="134.5928" x="207.1841" y="69.9951">lane : OutdoorLane</text><rect fill="#E2E2F0" height="30.2969" rx="2.5" ry="2.5" style="stroke:#181818;stroke-width:0.5;" width="112.4238" x="389.418" y="50"/><text fill="#000000" font-family="sans-serif" font-size="14" lengthAdjust="spacing" textLength="98.4238" x="396.418" y="69.9951">dry : DryState</text><rect fill="#FFFFFF" height="210.8281" style="stroke:#181818;stroke-width:1.0;" width="10" x="137.6025" y="112.4297"/><rect fill="#FFFFFF" height="164.6953" style="stroke:#181818;stroke-width:1.0;" width="10" x="269.4805" y="144.5625"/><rect fill="#FFFFFF" height="73.4297" style="stroke:#181818;stroke-width:1.0;" width="10" x="440.6299" y="179.6953"/><polygon fill="#181818" points="125.6025,108.4297,135.6025,112.4297,125.6025,116.4297" style="stroke:#181818;stroke-width:1.0;"/><line style="stroke:#181818;stroke-width:1.0;" x1="35.6514" x2="131.6025" y1="112.4297" y2="112.4297"/><text fill="#000000" font-family="sans-serif" font-size="13" lengthAdjust="spacing" textLength="82.9512" x="45.1514" y="107.3638">snowFall(10)</text><polygon fill="#181818" points="257.4805,140.5625,267.4805,144.5625,257.4805,148.5625" style="stroke:#181818;stroke-width:1.0;"/><line style="stroke:#181818;stroke-width:1.0;" x1="147.6025" x2="263.4805" y1="144.5625" y2="144.5625"/><text fill="#000000" font-family="sans-serif" font-size="13" lengthAdjust="spacing" textLength="82.9512" x="167.0659" y="139.4966">snowFall(10)</text><path d="M284,125.4297 L284,150.4297 L471,150.4297 L471,135.4297 L461,125.4297 L284,125.4297 " fill="#FEFFDD" style="stroke:#181818;stroke-width:0.5;"/><path d="M461,125.4297 L461,135.4297 L471,135.4297 L461,125.4297 " fill="#FEFFDD" style="stroke:#181818;stroke-width:0.5;"/><text fill="#000000" font-family="sans-serif" font-size="13" lengthAdjust="spacing" textLength="166.9751" x="290" y="142.4966">snowAmount += 10 &#8594; 10</text><polygon fill="#181818" points="428.6299,175.6953,438.6299,179.6953,428.6299,183.6953" style="stroke:#181818;stroke-width:1.0;"/><line style="stroke:#181818;stroke-width:1.0;" x1="279.4805" x2="434.6299" y1="179.6953" y2="179.6953"/><text fill="#000000" font-family="sans-serif" font-size="13" lengthAdjust="spacing" textLength="142.1494" x="288.9805" y="174.6294">handleSnow(lane, 10)</text><path d="M455,160.5625 L455,185.5625 L682,185.5625 L682,170.5625 L672,160.5625 L455,160.5625 " fill="#FEFFDD" style="stroke:#181818;stroke-width:0.5;"/><path d="M672,160.5625 L672,170.5625 L682,170.5625 L672,160.5625 " fill="#FEFFDD" style="stroke:#181818;stroke-width:0.5;"/><text fill="#000000" font-family="sans-serif" font-size="13" lengthAdjust="spacing" textLength="206.1528" x="461" y="177.6294">snowAmount=10 &gt;= k&#252;sz&#246;b(5)</text><polygon fill="#181818" points="520.0889,207.8281,530.0889,211.8281,520.0889,215.8281" style="stroke:#181818;stroke-width:1.0;"/><line style="stroke:#181818;stroke-width:1.0;" x1="450.6299" x2="526.0889" y1="211.8281" y2="211.8281"/><text fill="#000000" font-family="sans-serif" font-size="13" lengthAdjust="spacing" textLength="57.459" x="462.6299" y="206.7622">&#171;create&#187;</text><rect fill="#E2E2F0" height="30.2969" rx="2.5" ry="2.5" style="stroke:#181818;stroke-width:0.5;" width="155.2031" x="532.0889" y="190.6953"/><text fill="#000000" font-family="sans-serif" font-size="14" lengthAdjust="spacing" textLength="141.2031" x="539.0889" y="210.6904">snowy : SnowyState</text><line style="stroke:#181818;stroke-width:1.0;" x1="280.4805" x2="290.4805" y1="253.125" y2="249.125"/><line style="stroke:#181818;stroke-width:1.0;" x1="280.4805" x2="290.4805" y1="253.125" y2="257.125"/><line style="stroke:#181818;stroke-width:1.0;stroke-dasharray:2.0,2.0;" x1="279.4805" x2="444.6299" y1="253.125" y2="253.125"/><text fill="#000000" font-family="sans-serif" font-size="13" lengthAdjust="spacing" textLength="41.2915" x="341.9094" y="248.0591">snowy</text><line style="stroke:#181818;stroke-width:1.0;" x1="279.4805" x2="321.4805" y1="282.2578" y2="282.2578"/><line style="stroke:#181818;stroke-width:1.0;" x1="321.4805" x2="321.4805" y1="282.2578" y2="295.2578"/><line style="stroke:#181818;stroke-width:1.0;" x1="280.4805" x2="321.4805" y1="295.2578" y2="295.2578"/><polygon fill="#181818" points="290.4805,291.2578,280.4805,295.2578,290.4805,299.2578" style="stroke:#181818;stroke-width:1.0;"/><text fill="#000000" font-family="sans-serif" font-size="13" lengthAdjust="spacing" textLength="105.7139" x="286.4805" y="277.1919">setState(snowy)</text><line style="stroke:#181818;stroke-width:1.0;" x1="148.6025" x2="158.6025" y1="309.2578" y2="305.2578"/><line style="stroke:#181818;stroke-width:1.0;" x1="148.6025" x2="158.6025" y1="309.2578" y2="313.2578"/><line style="stroke:#181818;stroke-width:1.0;stroke-dasharray:2.0,2.0;" x1="147.6025" x2="273.4805" y1="309.2578" y2="309.2578"/><line style="stroke:#181818;stroke-width:1.0;" x1="36.6514" x2="46.6514" y1="323.2578" y2="319.2578"/><line style="stroke:#181818;stroke-width:1.0;" x1="36.6514" x2="46.6514" y1="323.2578" y2="327.2578"/><line style="stroke:#181818;stroke-width:1.0;stroke-dasharray:2.0,2.0;" x1="35.6514" x2="141.6025" y1="323.2578" y2="323.2578"/><!--SRC=[TP51JiCm44NtFiMe6r91fNR1fceZLKI8XH5IKWvWab5hrRMBxHIb1s0FD-0IhDXLN8IJC4xLDAd0YrZZ_-P_Ptm1ZpUZCTo9hTZjFnnpAwatmeerE5yffA-LkI_NggtWSuawntjqJYnmfkH2GuxQesLCvDvOw7bqEu_g-wq7mi6SKQUNkTm8xQ5dZIXW32bjjPnsPIKqalnG-i8OowcgATwb2biHbDWgyy8VY8InEGnYI4bmshpS2gMYqR0VBYMtH54Iq4e3nC-Xe3GWhykmjA7IoiNI7_ZPsfIKVpc5qH1-NjzfQrWUZ1CoNWfTACm8ZyBVNC4ne1EID4V_1qqf9Px2Ql_bTllFf-YwtsdABGQdpcH2SvXDY6zD9-iq9k6g6L6JoS4ZZi_rGNoQKjM81VvnVzvC57sT6DLD_JOGxEXbs9a9Fpv9qEUajxJq5m00]--></g></svg>