<svg xmlns="http://www.w3.org/2000/svg" xmlns:xlink="http://www.w3.org/1999/xlink" contentStyleType="text/css" height="271px" preserveAspectRatio="none" style="width:835px;height:271px;background:#FFFFFF;" version="1.1" viewBox="0 0 835 271" width="835px" zoomAndPan="magnify"><defs/><g><rect fill="#FFFFFF" height="99.3984" style="stroke:#181818;stroke-width:1.0;" width="10" x="220.8965" y="112.4297"/><rect fill="#FFFFFF" height="42.6992" style="stroke:#181818;stroke-width:1.0;" width="10" x="407.25" y="144.5625"/><line style="stroke:#181818;stroke-width:0.5;stroke-dasharray:5.0,5.0;" x1="35" x2="35" y1="81.2969" y2="264.9609"/><line style="stroke:#181818;stroke-width:0.5;stroke-dasharray:5.0,5.0;" x1="225.5391" x2="225.5391" y1="81.2969" y2="264.9609"/><line style="stroke:#181818;stroke-width:0.5;stroke-dasharray:5.0,5.0;" x1="411.2539" x2="411.2539" y1="81.2969" y2="264.9609"/><line style="stroke:#181818;stroke-width:0.5;stroke-dasharray:5.0,5.0;" x1="589.2461" x2="589.2461" y1="81.2969" y2="264.9609"/><line style="stroke:#181818;stroke-width:0.5;stroke-dasharray:5.0,5.0;" x1="750.8389" x2="750.8389" y1="81.2969" y2="264.9609"/><text fill="#000000" font-family="sans-serif" font-size="14" lengthAdjust="spacing" textLength="55.3027" x="5" y="77.9951">tesztel&#337;</text><ellipse cx="35.6514" cy="13.5" fill="#E2E2F0" rx="8" ry="8" style="stroke:#181818;stroke-width:0.5;"/><path d="M35.6514,21.5 L35.6514,48.5 M22.6514,29.5 L48.6514,29.5 M35.6514,48.5 L22.6514,63.5 M35.6514,48.5 L48.6514,63.5 " fill="none" style="stroke:#181818;stroke-width:0.5;"/><rect fill="#E2E2F0" height="30.2969" rx="2.5" ry="2.5" style="stroke:#181818;stroke-width:0.5;" width="166.7148" x="142.5391" y="50"/><text fill="#000000" font-family="sans-serif" font-size="14" lengthAdjust="spacing" textLength="152.7148" x="149.5391" y="69.9951">snowplow : SnowPlow</text><rect fill="#E2E2F0" height="46.5938" rx="2.5" ry="2.5" style="stroke:#181818;stroke-width:0.5;" width="185.9922" x="319.2539" y="33.7031"/><text fill="#000000" font-family="sans-serif" font-size="14" lengthAdjust="spacing" textLength="81.3203" x="371.5898" y="53.6982">attachment</text><text fill="#000000" font-family="sans-serif" font-size="14" lengthAdjust="spacing" textLength="171.9922" x="326.2539" y="69.9951">(Dragon / SaltVommiter)</text><rect fill="#E2E2F0" height="30.2969" rx="2.5" ry="2.5" style="stroke:#181818;stroke-width:0.5;" width="148.5928" x="515.2461" y="50"/><text fill="#000000" font-family="sans-serif" font-size="14" lengthAdjust="spacing" textLength="134.5928" x="522.2461" y="69.9951">lane : OutdoorLane</text><rect fill="#E2E2F0" height="30.2969" rx="2.5" ry="2.5" style="stroke:#181818;stroke-width:0.5;" width="155.2031" x="673.8389" y="50"/><text fill="#000000" font-family="sans-serif" font-size="14" lengthAdjust="spacing" textLength="141.2031" x="680.8389" y="69.9951">snowy : SnowyState</text><rect fill="#FFFFFF" height="99.3984" style="stroke:#181818;stroke-width:1.0;" width="10" x="220.8965" y="112.4297"/><rect fill="#FFFFFF" height="42.6992" style="stroke:#181818;stroke-width:1.0;" width="10" x="407.25" y="144.5625"/><polygon fill="#181818" points="208.8965,108.4297,218.8965,112.4297,208.8965,116.4297" style="stroke:#181818;stroke-width:1.0;"/><line style="stroke:#181818;stroke-width:1.0;" x1="35.6514" x2="214.8965" y1="112.4297" y2="112.4297"/><text fill="#000000" font-family="sans-serif" font-size="13" lengthAdjust="spacing" textLength="166.2451" x="45.1514" y="107.3638">interactWithLane(lane, 0)</text><polygon fill="#181818" points="395.25,140.5625,405.25,144.5625,395.25,148.5625" style="stroke:#181818;stroke-width:1.0;"/><line style="stroke:#181818;stroke-width:1.0;" x1="230.8965" x2="401.25" y1="144.5625" y2="144.5625"/><text fill="#000000" font-family="sans-serif" font-size="13" lengthAdjust="spacing" textLength="120.9038" x="258.6213" y="139.4966">cleanLane(lane, 0)</text><path d="M422,125.4297 L422,150.4297 L645,150.4297 L645,135.4297 L635,125.4297 L422,125.4297 " fill="#FEFFDD" style="stroke:#181818;stroke-width:0.5;"/><path d="M635,125.4297 L635,135.4297 L645,135.4297 L635,125.4297 " fill="#FEFFDD" style="stroke:#181818;stroke-width:0.5;"/><text fill="#000000" font-family="sans-serif" font-size="13" lengthAdjust="spacing" textLength="202.2935" x="428" y="142.4966">fuelLevel &lt;= 0 (kifogyott tank)</text><line style="stroke:#181818;stroke-width:1.0;" x1="231.8965" x2="241.8965" y1="187.2617" y2="183.2617"/><line style="stroke:#181818;stroke-width:1.0;" x1="231.8965" x2="241.8965" y1="187.2617" y2="191.2617"/><line style="stroke:#181818;stroke-width:1.0;stroke-dasharray:2.0,2.0;" x1="230.8965" x2="411.25" y1="187.2617" y2="187.2617"/><text fill="#000000" font-family="sans-serif" font-size="13" lengthAdjust="spacing" textLength="30.9258" x="306.1104" y="182.1958">false</text><path d="M422,160.5625 L422,200.5625 L610,200.5625 L610,170.5625 L600,160.5625 L422,160.5625 " fill="#FEFFDD" style="stroke:#181818;stroke-width:0.5;"/><path d="M600,160.5625 L600,170.5625 L610,170.5625 L600,160.5625 " fill="#FEFFDD" style="stroke:#181818;stroke-width:0.5;"/><text fill="#000000" font-family="sans-serif" font-size="13" lengthAdjust="spacing" textLength="160.5322" x="428" y="177.6294">false &#8594; nincs addIncome</text><text fill="#000000" font-family="sans-serif" font-size="13" lengthAdjust="spacing" textLength="167.248" x="428" y="192.7622">a s&#225;v &#225;llapota v&#225;ltozatlan</text><line style="stroke:#181818;stroke-width:1.0;" x1="36.6514" x2="46.6514" y1="211.8281" y2="207.8281"/><line style="stroke:#181818;stroke-width:1.0;" x1="36.6514" x2="46.6514" y1="211.8281" y2="215.8281"/><line style="stroke:#181818;stroke-width:1.0;stroke-dasharray:2.0,2.0;" x1="35.6514" x2="224.8965" y1="211.8281" y2="211.8281"/><path d="M516,224.8281 L516,249.8281 L824,249.8281 L824,234.8281 L814,224.8281 L516,224.8281 " fill="#FEFFDD" style="stroke:#181818;stroke-width:0.5;"/><path d="M814,224.8281 L814,234.8281 L824,234.8281 L814,224.8281 " fill="#FEFFDD" style="stroke:#181818;stroke-width:0.5;"/><text fill="#000000" font-family="sans-serif" font-size="13" lengthAdjust="spacing" textLength="184.6343" x="573.5808" y="241.895">lane marad SnowyState-ben</text><!--SRC=[PLB1RjGm4BtdAqPxOLVgYdBW4a6bY1vQQH6Hii2bbwapctNZsC6UfCf-07VuW_q0Jli94J_2bp1EeJJK1sj6yzwRDsE_W8_lNhrEuMeyrOxzU8AEaQ6Lw7Oy6c2iqOy_6As6MkzSDJXcACQZhyUZ7Q37Qf3q50xZAR9tT7T79WcrjYrwR23mO4XkhnLtpQn2NpgoYjvJ25XHPdHbGP5byac2Yfs71LCuC9cVtnQ00RQ9C5ahtQ9bM0JhxblZxY65Gi9SmWcMps78Z6hVYF2DNLvwh9o5br2WuK-kQRIqMqsqR4upQ4cKFtHSEkStaasepNCFmny3Go6hUq0LsoJPmle2SgdfE98Cz5dpFkeie_GPdA_YbBeNZbW6ENbaPC9GXj3EeR7-2C-cD1xh9FMwsdCAkuxCXdeoyEOjdCFottl9yzMhHqu6w_N5WxKTca1JeQJ_r6VA4GQ_ldu7gwqAW6LvRPLhwCOYXF7OW_mLWwrZX5v2TWTaiVvtgjXk2sdof4cU95C7rvE7pPbiB8LfvOryZlB9FjUtP7y3]--></g></svg>