<svg xmlns="http://www.w3.org/2000/svg" xmlns:xlink="http://www.w3.org/1999/xlink" contentStyleType="text/css" height="1061px" preserveAspectRatio="none" style="width:1823px;height:1061px;background:#FFFFFF;" version="1.1" viewBox="0 0 1823 1061" width="1823px" zoomAndPan="magnify"><defs/><g><rect fill="#FFFFFF" height="642.0469" style="stroke:#181818;stroke-width:1.0;" width="10" x="242.1821" y="67.4297"/><rect fill="#FFFFFF" height="30" style="stroke:#181818;stroke-width:1.0;" width="10" x="387.4858" y="138.6953"/><rect fill="#FFFFFF" height="283.0625" style="stroke:#181818;stroke-width:1.0;" width="10" x="387.4858" y="746.6094"/><rect fill="#FFFFFF" height="35.1328" style="stroke:#181818;stroke-width:1.0;" width="10" x="958.9658" y="310.3906"/><rect fill="#FFFFFF" height="35.1328" style="stroke:#181818;stroke-width:1.0;" width="10" x="958.9658" y="780.7422"/><rect fill="#FFFFFF" height="35.1328" style="stroke:#181818;stroke-width:1.0;" width="10" x="1177.6318" y="852.0078"/><rect fill="#FFFFFF" height="35.1328" style="stroke:#181818;stroke-width:1.0;" width="10" x="1396.2979" y="923.2734"/><rect fill="#FFFFFF" height="35.1328" style="stroke:#181818;stroke-width:1.0;" width="10" x="1614.9639" y="994.5391"/><line style="stroke:#181818;stroke-width:0.5;stroke-dasharray:5.0,5.0;" x1="29" x2="29" y1="36.2969" y2="1054.6719"/><line style="stroke:#181818;stroke-width:0.5;stroke-dasharray:5.0,5.0;" x1="246.6118" x2="246.6118" y1="36.2969" y2="1054.6719"/><line style="stroke:#181818;stroke-width:0.5;stroke-dasharray:5.0,5.0;" x1="391.7524" x2="391.7524" y1="36.2969" y2="1054.6719"/><line style="stroke:#181818;stroke-width:0.5;stroke-dasharray:5.0,5.0;" x1="532.5732" x2="532.5732" y1="36.2969" y2="1054.6719"/><line style="stroke:#181818;stroke-width:0.5;stroke-dasharray:5.0,5.0;" x1="660.5601" x2="660.5601" y1="36.2969" y2="1054.6719"/><line style="stroke:#181818;stroke-width:0.5;stroke-dasharray:5.0,5.0;" x1="745.9321" x2="745.9321" y1="36.2969" y2="1054.6719"/><line style="stroke:#181818;stroke-width:0.5;stroke-dasharray:5.0,5.0;" x1="843.6958" x2="843.6958" y1="36.2969" y2="1054.6719"/><line style="stroke:#181818;stroke-width:0.5;stroke-dasharray:5.0,5.0;" x1="963.1099" x2="963.1099" y1="207.3438" y2="1054.6719"/><line style="stroke:#181818;stroke-width:0.5;stroke-dasharray:5.0,5.0;" x1="1182.0381" x2="1182.0381" y1="420.3047" y2="1054.6719"/><line style="stroke:#181818;stroke-width:0.5;stroke-dasharray:5.0,5.0;" x1="1400.8623" x2="1400.8623" y1="519.8672" y2="1054.6719"/><line style="stroke:#181818;stroke-width:0.5;stroke-dasharray:5.0,5.0;" x1="1619.3491" x2="1619.3491" y1="619.4297" y2="1054.6719"/><rect fill="#E2E2F0" height="30.2969" rx="2.5" ry="2.5" style="stroke:#181818;stroke-width:0.5;" width="48.9795" x="5" y="5"/><text fill="#000000" font-family="sans-serif" font-size="14" lengthAdjust="spacing" textLength="34.9795" x="12" y="24.9951">main</text><rect fill="#E2E2F0" height="30.2969" rx="2.5" ry="2.5" style="stroke:#181818;stroke-width:0.5;" width="145.1406" x="174.6118" y="5"/><text fill="#000000" font-family="sans-serif" font-size="14" lengthAdjust="spacing" textLength="131.1406" x="181.6118" y="24.9951">gw : GameWindow</text><rect fill="#E2E2F0" height="30.2969" rx="2.5" ry="2.5" style="stroke:#181818;stroke-width:0.5;" width="125.4668" x="329.7524" y="5"/><text fill="#000000" font-family="sans-serif" font-size="14" lengthAdjust="spacing" textLength="111.4668" x="336.7524" y="24.9951">gp : GamePanel</text><rect fill="#E2E2F0" height="30.2969" rx="2.5" ry="2.5" style="stroke:#181818;stroke-width:0.5;" width="87.8965" x="489.5732" y="5"/><text fill="#000000" font-family="sans-serif" font-size="14" lengthAdjust="spacing" textLength="73.8965" x="496.5732" y="24.9951">j : Junction</text><rect fill="#E2E2F0" height="30.2969" rx="2.5" ry="2.5" style="stroke:#181818;stroke-width:0.5;" width="65.3721" x="628.5601" y="5"/><text fill="#000000" font-family="sans-serif" font-size="14" lengthAdjust="spacing" textLength="51.3721" x="635.5601" y="24.9951">l : Lane</text><rect fill="#E2E2F0" height="30.2969" rx="2.5" ry="2.5" style="stroke:#181818;stroke-width:0.5;" width="85.7637" x="703.9321" y="5"/><text fill="#000000" font-family="sans-serif" font-size="14" lengthAdjust="spacing" textLength="71.7637" x="710.9321" y="24.9951">v : vehicle</text><rect fill="#E2E2F0" height="30.2969" rx="2.5" ry="2.5" style="stroke:#181818;stroke-width:0.5;" width="89.4141" x="799.6958" y="5"/><text fill="#000000" font-family="sans-serif" font-size="14" lengthAdjust="spacing" textLength="75.4141" x="806.6958" y="24.9951">c : Cleaner</text><rect fill="#FFFFFF" height="642.0469" style="stroke:#181818;stroke-width:1.0;" width="10" x="242.1821" y="67.4297"/><rect fill="#FFFFFF" height="30" style="stroke:#181818;stroke-width:1.0;" width="10" x="387.4858" y="138.6953"/><rect fill="#FFFFFF" height="283.0625" style="stroke:#181818;stroke-width:1.0;" width="10" x="387.4858" y="746.6094"/><rect fill="#FFFFFF" height="35.1328" style="stroke:#181818;stroke-width:1.0;" width="10" x="958.9658" y="310.3906"/><rect fill="#FFFFFF" height="35.1328" style="stroke:#181818;stroke-width:1.0;" width="10" x="958.9658" y="780.7422"/><rect fill="#FFFFFF" height="35.1328" style="stroke:#181818;stroke-width:1.0;" width="10" x="1177.6318" y="852.0078"/><rect fill="#FFFFFF" height="35.1328" style="stroke:#181818;stroke-width:1.0;" width="10" x="1396.2979" y="923.2734"/><rect fill="#FFFFFF" height="35.1328" style="stroke:#181818;stroke-width:1.0;" width="10" x="1614.9639" y="994.5391"/><polygon fill="#181818" points="230.1821,63.4297,240.1821,67.4297,230.1821,71.4297" style="stroke:#181818;stroke-width:1.0;"/><line style="stroke:#181818;stroke-width:1.0;" x1="29.4897" x2="236.1821" y1="67.4297" y2="67.4297"/><text fill="#000000" font-family="sans-serif" font-size="13" lengthAdjust="spacing" textLength="193.6924" x="38.9897" y="62.3638">new GameWindow(controller)</text><line style="stroke:#181818;stroke-width:1.0;" x1="252.1821" x2="294.1821" y1="96.5625" y2="96.5625"/><line style="stroke:#181818;stroke-width:1.0;" x1="294.1821" x2="294.1821" y1="96.5625" y2="109.5625"/><line style="stroke:#181818;stroke-width:1.0;" x1="253.1821" x2="294.1821" y1="109.5625" y2="109.5625"/><polygon fill="#181818" points="263.1821,105.5625,253.1821,109.5625,263.1821,113.5625" style="stroke:#181818;stroke-width:1.0;"/><text fill="#000000" font-family="sans-serif" font-size="13" lengthAdjust="spacing" textLength="44.0527" x="259.1821" y="91.4966">initUI()</text><polygon fill="#181818" points="375.4858,134.6953,385.4858,138.6953,375.4858,142.6953" style="stroke:#181818;stroke-width:1.0;"/><line style="stroke:#181818;stroke-width:1.0;" x1="252.1821" x2="381.4858" y1="138.6953" y2="138.6953"/><text fill="#000000" font-family="sans-serif" font-size="13" lengthAdjust="spacing" textLength="115.502" x="262.083" y="133.6294">new GamePanel()</text><polygon fill="#181818" points="887.1099,193.8281,897.1099,197.8281,887.1099,201.8281" style="stroke:#181818;stroke-width:1.0;"/><line style="stroke:#181818;stroke-width:1.0;" x1="252.1821" x2="893.1099" y1="197.8281" y2="197.8281"/><text fill="#000000" font-family="sans-serif" font-size="13" lengthAdjust="spacing" textLength="128.2544" x="511.5188" y="192.7622">new JunctionView(j)</text><rect fill="#E2E2F0" height="30.2969" rx="2.5" ry="2.5" style="stroke:#181818;stroke-width:0.5;" width="129.7119" x="899.1099" y="176.6953"/><text fill="#000000" font-family="sans-serif" font-size="14" lengthAdjust="spacing" textLength="115.7119" x="906.1099" y="196.6904">jv : JunctionView</text><polygon fill="#181818" points="521.5215,235.125,531.5215,239.125,521.5215,243.125" style="stroke:#181818;stroke-width:1.0;"/><line style="stroke:#181818;stroke-width:1.0;" x1="252.1821" x2="527.5215" y1="239.125" y2="239.125"/><text fill="#000000" font-family="sans-serif" font-size="13" lengthAdjust="spacing" textLength="105.5552" x="340.0742" y="234.0591">addObserver(jv)</text><line style="stroke:#181818;stroke-width:1.0;" x1="533.5215" x2="575.5215" y1="268.2578" y2="268.2578"/><line style="stroke:#181818;stroke-width:1.0;" x1="575.5215" x2="575.5215" y1="268.2578" y2="281.2578"/><line style="stroke:#181818;stroke-width:1.0;" x1="534.5215" x2="575.5215" y1="281.2578" y2="281.2578"/><polygon fill="#181818" points="544.5215,277.2578,534.5215,281.2578,544.5215,285.2578" style="stroke:#181818;stroke-width:1.0;"/><text fill="#000000" font-family="sans-serif" font-size="13" lengthAdjust="spacing" textLength="113.7246" x="540.5215" y="263.1919">notifyObservers()</text><polygon fill="#181818" points="946.9658,306.3906,956.9658,310.3906,946.9658,314.3906" style="stroke:#181818;stroke-width:1.0;"/><line style="stroke:#181818;stroke-width:1.0;" x1="533.5215" x2="952.9658" y1="310.3906" y2="310.3906"/><text fill="#000000" font-family="sans-serif" font-size="13" lengthAdjust="spacing" textLength="55.9482" x="718.2695" y="305.3247">update()</text><line style="stroke:#181818;stroke-width:1.0;" x1="968.9658" x2="1010.9658" y1="344.5234" y2="344.5234"/><line style="stroke:#181818;stroke-width:1.0;" x1="1010.9658" x2="1010.9658" y1="344.5234" y2="357.5234"/><line style="stroke:#181818;stroke-width:1.0;" x1="963.9658" x2="1010.9658" y1="357.5234" y2="357.5234"/><polygon fill="#181818" points="973.9658,353.5234,963.9658,357.5234,973.9658,361.5234" style="stroke:#181818;stroke-width:1.0;"/><text fill="#000000" font-family="sans-serif" font-size="13" lengthAdjust="spacing" textLength="92.4346" x="975.9658" y="339.4575">sz&#237;n be&#225;ll&#237;t&#225;sa</text><polygon fill="#181818" points="380.4858,377.6563,390.4858,381.6563,380.4858,385.6563" style="stroke:#181818;stroke-width:1.0;"/><line style="stroke:#181818;stroke-width:1.0;" x1="252.1821" x2="386.4858" y1="381.6563" y2="381.6563"/><text fill="#000000" font-family="sans-serif" font-size="13" lengthAdjust="spacing" textLength="77.0542" x="283.8069" y="376.5903">addView(jv)</text><polygon fill="#181818" points="1117.0381,406.7891,1127.0381,410.7891,1117.0381,414.7891" style="stroke:#181818;stroke-width:1.0;"/><line style="stroke:#181818;stroke-width:1.0;" x1="252.1821" x2="1123.0381" y1="410.7891" y2="410.7891"/><text fill="#000000" font-family="sans-serif" font-size="13" lengthAdjust="spacing" textLength="163.0205" x="609.0999" y="405.7231">new LaneView(l, jv1, jv2)</text><rect fill="#E2E2F0" height="30.2969" rx="2.5" ry="2.5" style="stroke:#181818;stroke-width:0.5;" width="107.1875" x="1129.0381" y="389.6563"/><text fill="#000000" font-family="sans-serif" font-size="14" lengthAdjust="spacing" textLength="93.1875" x="1136.0381" y="409.6514">lv : LaneView</text><polygon fill="#181818" points="649.2461,448.0859,659.2461,452.0859,649.2461,456.0859" style="stroke:#181818;stroke-width:1.0;"/><line style="stroke:#181818;stroke-width:1.0;" x1="252.1821" x2="655.2461" y1="452.0859" y2="452.0859"/><text fill="#000000" font-family="sans-serif" font-size="13" lengthAdjust="spacing" textLength="105.5552" x="403.9365" y="447.02">addObserver(lv)</text><polygon fill="#181818" points="380.4858,477.2188,390.4858,481.2188,380.4858,485.2188" style="stroke:#181818;stroke-width:1.0;"/><line style="stroke:#181818;stroke-width:1.0;" x1="252.1821" x2="386.4858" y1="481.2188" y2="481.2188"/><text fill="#000000" font-family="sans-serif" font-size="13" lengthAdjust="spacing" textLength="77.0542" x="283.8069" y="476.1528">addView(lv)</text><polygon fill="#181818" points="1324.8623,506.3516,1334.8623,510.3516,1324.8623,514.3516" style="stroke:#181818;stroke-width:1.0;"/><line style="stroke:#181818;stroke-width:1.0;" x1="252.1821" x2="1330.8623" y1="510.3516" y2="510.3516"/><text fill="#000000" font-family="sans-serif" font-size="13" lengthAdjust="spacing" textLength="127.4736" x="730.7854" y="505.2856">new VehicleView(v)</text><rect fill="#E2E2F0" height="30.2969" rx="2.5" ry="2.5" style="stroke:#181818;stroke-width:0.5;" width="128.8711" x="1336.8623" y="489.2188"/><text fill="#000000" font-family="sans-serif" font-size="14" lengthAdjust="spacing" textLength="114.8711" x="1343.8623" y="509.2139">vv : VehicleView</text><polygon fill="#181818" points="734.814,547.6484,744.814,551.6484,734.814,555.6484" style="stroke:#181818;stroke-width:1.0;"/><line style="stroke:#181818;stroke-width:1.0;" x1="252.1821" x2="740.814" y1="551.6484" y2="551.6484"/><text fill="#000000" font-family="sans-serif" font-size="13" lengthAdjust="spacing" textLength="109.6367" x="444.6797" y="546.5825">addObserver(vv)</text><polygon fill="#181818" points="380.4858,576.7813,390.4858,580.7813,380.4858,584.7813" style="stroke:#181818;stroke-width:1.0;"/><line style="stroke:#181818;stroke-width:1.0;" x1="252.1821" x2="386.4858" y1="580.7813" y2="580.7813"/><text fill="#000000" font-family="sans-serif" font-size="13" lengthAdjust="spacing" textLength="81.1357" x="281.7661" y="575.7153">addView(vv)</text><polygon fill="#181818" points="1542.3491,605.9141,1552.3491,609.9141,1542.3491,613.9141" style="stroke:#181818;stroke-width:1.0;"/><line style="stroke:#181818;stroke-width:1.0;" x1="252.1821" x2="1548.3491" y1="609.9141" y2="609.9141"/><text fill="#000000" font-family="sans-serif" font-size="13" lengthAdjust="spacing" textLength="129.6636" x="838.4338" y="604.8481">new CleanerView(c)</text><rect fill="#E2E2F0" height="30.2969" rx="2.5" ry="2.5" style="stroke:#181818;stroke-width:0.5;" width="131.2295" x="1554.3491" y="588.7813"/><text fill="#000000" font-family="sans-serif" font-size="14" lengthAdjust="spacing" textLength="117.2295" x="1561.3491" y="608.7764">cv : CleanerView</text><polygon fill="#181818" points="832.4028,647.2109,842.4028,651.2109,832.4028,655.2109" style="stroke:#181818;stroke-width:1.0;"/><line style="stroke:#181818;stroke-width:1.0;" x1="252.1821" x2="838.4028" y1="651.2109" y2="651.2109"/><text fill="#000000" font-family="sans-serif" font-size="13" lengthAdjust="spacing" textLength="109.0908" x="493.7471" y="646.145">addObserver(cv)</text><polygon fill="#181818" points="380.4858,676.3438,390.4858,680.3438,380.4858,684.3438" style="stroke:#181818;stroke-width:1.0;"/><line style="stroke:#181818;stroke-width:1.0;" x1="252.1821" x2="386.4858" y1="680.3438" y2="680.3438"/><text fill="#000000" font-family="sans-serif" font-size="13" lengthAdjust="spacing" textLength="80.5898" x="282.0391" y="675.2778">addView(cv)</text><polygon fill="#181818" points="380.4858,705.4766,390.4858,709.4766,380.4858,713.4766" style="stroke:#181818;stroke-width:1.0;"/><line style="stroke:#181818;stroke-width:1.0;" x1="247.1821" x2="386.4858" y1="709.4766" y2="709.4766"/><text fill="#000000" font-family="sans-serif" font-size="13" lengthAdjust="spacing" textLength="56.6528" x="291.5076" y="704.4106">repaint()</text><line style="stroke:#181818;stroke-width:1.0;" x1="392.4858" x2="439.4858" y1="733.6094" y2="733.6094"/><line style="stroke:#181818;stroke-width:1.0;" x1="439.4858" x2="439.4858" y1="733.6094" y2="746.6094"/><line style="stroke:#181818;stroke-width:1.0;" x1="398.4858" x2="439.4858" y1="746.6094" y2="746.6094"/><polygon fill="#181818" points="408.4858,742.6094,398.4858,746.6094,408.4858,750.6094" style="stroke:#181818;stroke-width:1.0;"/><text fill="#000000" font-family="sans-serif" font-size="13" lengthAdjust="spacing" textLength="127.0356" x="404.4858" y="728.5435">paintComponent(g)</text><polygon fill="#181818" points="946.9658,776.7422,956.9658,780.7422,946.9658,784.7422" style="stroke:#181818;stroke-width:1.0;"/><line style="stroke:#181818;stroke-width:1.0;" x1="397.4858" x2="952.9658" y1="780.7422" y2="780.7422"/><text fill="#000000" font-family="sans-serif" font-size="13" lengthAdjust="spacing" textLength="50.5908" x="652.9304" y="775.6763">draw(g)</text><line style="stroke:#181818;stroke-width:1.0;" x1="968.9658" x2="1010.9658" y1="814.875" y2="814.875"/><line style="stroke:#181818;stroke-width:1.0;" x1="1010.9658" x2="1010.9658" y1="814.875" y2="827.875"/><line style="stroke:#181818;stroke-width:1.0;" x1="963.9658" x2="1010.9658" y1="827.875" y2="827.875"/><polygon fill="#181818" points="973.9658,823.875,963.9658,827.875,973.9658,831.875" style="stroke:#181818;stroke-width:1.0;"/><text fill="#000000" font-family="sans-serif" font-size="13" lengthAdjust="spacing" textLength="184.666" x="975.9658" y="809.8091">g.fillRect(x, y, width, height)</text><polygon fill="#181818" points="1165.6318,848.0078,1175.6318,852.0078,1165.6318,856.0078" style="stroke:#181818;stroke-width:1.0;"/><line style="stroke:#181818;stroke-width:1.0;" x1="397.4858" x2="1171.6318" y1="852.0078" y2="852.0078"/><text fill="#000000" font-family="sans-serif" font-size="13" lengthAdjust="spacing" textLength="50.5908" x="762.2634" y="846.9419">draw(g)</text><line style="stroke:#181818;stroke-width:1.0;" x1="1187.6318" x2="1229.6318" y1="886.1406" y2="886.1406"/><line style="stroke:#181818;stroke-width:1.0;" x1="1229.6318" x2="1229.6318" y1="886.1406" y2="899.1406"/><line style="stroke:#181818;stroke-width:1.0;" x1="1182.6318" x2="1229.6318" y1="899.1406" y2="899.1406"/><polygon fill="#181818" points="1192.6318,895.1406,1182.6318,899.1406,1192.6318,903.1406" style="stroke:#181818;stroke-width:1.0;"/><text fill="#000000" font-family="sans-serif" font-size="13" lengthAdjust="spacing" textLength="184.666" x="1194.6318" y="881.0747">g.fillRect(x, y, width, height)</text><polygon fill="#181818" points="1384.2979,919.2734,1394.2979,923.2734,1384.2979,927.2734" style="stroke:#181818;stroke-width:1.0;"/><line style="stroke:#181818;stroke-width:1.0;" x1="397.4858" x2="1390.2979" y1="923.2734" y2="923.2734"/><text fill="#000000" font-family="sans-serif" font-size="13" lengthAdjust="spacing" textLength="50.5908" x="871.5964" y="918.2075">draw(g)</text><line style="stroke:#181818;stroke-width:1.0;" x1="1406.2979" x2="1448.2979" y1="957.4063" y2="957.4063"/><line style="stroke:#181818;stroke-width:1.0;" x1="1448.2979" x2="1448.2979" y1="957.4063" y2="970.4063"/><line style="stroke:#181818;stroke-width:1.0;" x1="1401.2979" x2="1448.2979" y1="970.4063" y2="970.4063"/><polygon fill="#181818" points="1411.2979,966.4063,1401.2979,970.4063,1411.2979,974.4063" style="stroke:#181818;stroke-width:1.0;"/><text fill="#000000" font-family="sans-serif" font-size="13" lengthAdjust="spacing" textLength="184.666" x="1413.2979" y="952.3403">g.fillRect(x, y, width, height)</text><polygon fill="#181818" points="1602.9639,990.5391,1612.9639,994.5391,1602.9639,998.5391" style="stroke:#181818;stroke-width:1.0;"/><line style="stroke:#181818;stroke-width:1.0;" x1="397.4858" x2="1608.9639" y1="994.5391" y2="994.5391"/><text fill="#000000" font-family="sans-serif" font-size="13" lengthAdjust="spacing" textLength="50.5908" x="980.9294" y="989.4731">draw(g)</text><line style="stroke:#181818;stroke-width:1.0;" x1="1624.9639" x2="1666.9639" y1="1028.6719" y2="1028.6719"/><line style="stroke:#181818;stroke-width:1.0;" x1="1666.9639" x2="1666.9639" y1="1028.6719" y2="1041.6719"/><line style="stroke:#181818;stroke-width:1.0;" x1="1619.9639" x2="1666.9639" y1="1041.6719" y2="1041.6719"/><polygon fill="#181818" points="1629.9639,1037.6719,1619.9639,1041.6719,1629.9639,1045.6719" style="stroke:#181818;stroke-width:1.0;"/><text fill="#000000" font-family="sans-serif" font-size="13" lengthAdjust="spacing" textLength="184.666" x="1631.9639" y="1023.606">g.fillRect(x, y, width, height)</text><!--SRC=[bPJ1Rfj048RlFCKgbu9aLqsFFLIgY1J58ghLAflpPXdZTTOBNTRhEc_Z1yYfrzvuiGvWy41BLFk03F_7_F-CPdd7lj_C7-xc7wu_iLihLkfvLx8LwEgt1iUKKL89hLwgerJLhuq8ocTb2c75bfNke06lLactssggm8yT60dtK9OYWozQPOP9C0vi423Yi6WXZ6DNMw7C5HCbkyS_GodRCqmajl2eJ9hl6-hsSSGK9sOf3EWMMGwH3HABdP5EvQtJOgXhr1Dykz6IeUPHyx1MKhSo7yeIvLW3lcmREGw2kWqs_un1KJEm9ms4CZVEvbg3ZGA1URnmK7V4y8TyznQEt3tSXL50XIKfr_IAUYsVwooR-nJea-QHj53V3eVYoLIuWdQw2qui5_naIR5m4r442P6cNvzAi1vikF6jkkX4apkrEdHw6LAvBhyhKemsRkKKeq5vpvOlrQjXJr0TjQvUNNKinRZZGVvcP9YkZUsZwM5eVrg1VX09BPHqW-YGKC_Onb_NbuzjT4gFPg9zD1LAlnNArw5uktjzBavpyIuNeSA16nzbyTDP_5jPf3ylUfybfbdYBWkXGadTub4MEPr5-hzttqA19ylXgj0DVmm2L3kc8U9yM-G6FpLXHazPUpfQk5cdr8fzZVp7vcNlLqhhRo1T-7F63ZEsLwbRpzWQLBPsqTGMBllb-QTNSlPAU8zUw9LGBpxfnSzUdFVeXLwSUiMJNl7PA-OzUg4N5XbyoVu0]--></g></svg>