<svg xmlns="http://www.w3.org/2000/svg" xmlns:xlink="http://www.w3.org/1999/xlink" contentStyleType="text/css" height="375px" preserveAspectRatio="none" style="width:547px;height:375px;background:#FFFFFF;" version="1.1" viewBox="0 0 547 375" width="547px" zoomAndPan="magnify"><defs/><g><rect fill="#FFFFFF" height="29.1328" style="stroke:#181818;stroke-width:1.0;" width="10" x="217.0527" y="112.4297"/><rect fill="#FFFFFF" height="29.1328" style="stroke:#181818;stroke-width:1.0;" width="10" x="217.0527" y="182.8594"/><rect fill="#FFFFFF" height="30" style="stroke:#181818;stroke-width:1.0;" width="10" x="217.0527" y="244.125"/><line style="stroke:#181818;stroke-width:0.5;stroke-dasharray:5.0,5.0;" x1="36" x2="36" y1="81.2969" y2="295.125"/><line style="stroke:#181818;stroke-width:0.5;stroke-dasharray:5.0,5.0;" x1="221.9644" x2="221.9644" y1="81.2969" y2="295.125"/><line style="stroke:#181818;stroke-width:0.5;stroke-dasharray:5.0,5.0;" x1="340.1411" x2="340.1411" y1="81.2969" y2="295.125"/><line style="stroke:#181818;stroke-width:0.5;stroke-dasharray:5.0,5.0;" x1="474.2056" x2="474.2056" y1="151.0781" y2="295.125"/><text fill="#000000" font-family="sans-serif" font-size="14" lengthAdjust="spacing" textLength="57.5176" x="5" y="77.9951">Takar&#237;t&#243;</text><ellipse cx="36.7588" cy="13.5" fill="#E2E2F0" rx="8" ry="8" style="stroke:#181818;stroke-width:0.5;"/><path d="M36.7588,21.5 L36.7588,48.5 M23.7588,29.5 L49.7588,29.5 M36.7588,48.5 L23.7588,63.5 M36.7588,48.5 L49.7588,63.5 " fill="none" style="stroke:#181818;stroke-width:0.5;"/><text fill="#000000" font-family="sans-serif" font-size="14" lengthAdjust="spacing" textLength="57.5176" x="5" y="307.1201">Takar&#237;t&#243;</text><ellipse cx="36.7588" cy="318.9219" fill="#E2E2F0" rx="8" ry="8" style="stroke:#181818;stroke-width:0.5;"/><path d="M36.7588,326.9219 L36.7588,353.9219 M23.7588,334.9219 L49.7588,334.9219 M36.7588,353.9219 L23.7588,368.9219 M36.7588,353.9219 L49.7588,368.9219 " fill="none" style="stroke:#181818;stroke-width:0.5;"/><rect fill="#E2E2F0" height="30.2969" rx="2.5" ry="2.5" style="stroke:#181818;stroke-width:0.5;" width="102.1768" x="170.9644" y="50"/><text fill="#000000" font-family="sans-serif" font-size="14" lengthAdjust="spacing" textLength="88.1768" x="177.9644" y="69.9951">p: SnowPlow</text><rect fill="#E2E2F0" height="30.2969" rx="2.5" ry="2.5" style="stroke:#181818;stroke-width:0.5;" width="102.1768" x="170.9644" y="294.125"/><text fill="#000000" font-family="sans-serif" font-size="14" lengthAdjust="spacing" textLength="88.1768" x="177.9644" y="314.1201">p: SnowPlow</text><rect fill="#E2E2F0" height="30.2969" rx="2.5" ry="2.5" style="stroke:#181818;stroke-width:0.5;" width="114.0645" x="283.1411" y="50"/><text fill="#000000" font-family="sans-serif" font-size="14" lengthAdjust="spacing" textLength="100.0645" x="290.1411" y="69.9951">a: Attachment</text><rect fill="#E2E2F0" height="30.2969" rx="2.5" ry="2.5" style="stroke:#181818;stroke-width:0.5;" width="114.0645" x="283.1411" y="294.125"/><text fill="#000000" font-family="sans-serif" font-size="14" lengthAdjust="spacing" textLength="100.0645" x="290.1411" y="314.1201">a: Attachment</text><rect fill="#E2E2F0" height="30.2969" rx="2.5" ry="2.5" style="stroke:#181818;stroke-width:0.5;" width="134.4219" x="407.2056" y="294.125"/><text fill="#000000" font-family="sans-serif" font-size="14" lengthAdjust="spacing" textLength="120.4219" x="414.2056" y="314.1201">new: Attachment</text><rect fill="#FFFFFF" height="29.1328" style="stroke:#181818;stroke-width:1.0;" width="10" x="217.0527" y="112.4297"/><rect fill="#FFFFFF" height="29.1328" style="stroke:#181818;stroke-width:1.0;" width="10" x="217.0527" y="182.8594"/><rect fill="#FFFFFF" height="30" style="stroke:#181818;stroke-width:1.0;" width="10" x="217.0527" y="244.125"/><polygon fill="#181818" points="205.0527,108.4297,215.0527,112.4297,205.0527,116.4297,209.0527,112.4297" style="stroke:#181818;stroke-width:1.0;"/><line style="stroke:#181818;stroke-width:1.0;" x1="36.7588" x2="211.0527" y1="112.4297" y2="112.4297"/><text fill="#000000" font-family="sans-serif" font-size="13" lengthAdjust="spacing" textLength="161.2939" x="43.7588" y="107.3638">changeAttachment(new)</text><polygon fill="#181818" points="395.2056,137.5625,405.2056,141.5625,395.2056,145.5625,399.2056,141.5625" style="stroke:#181818;stroke-width:1.0;"/><line style="stroke:#181818;stroke-width:1.0;" x1="222.0527" x2="401.2056" y1="141.5625" y2="141.5625"/><text fill="#000000" font-family="sans-serif" font-size="13" lengthAdjust="spacing" textLength="57.459" x="229.0527" y="136.4966">&#171;create&#187;</text><rect fill="#E2E2F0" height="30.2969" rx="2.5" ry="2.5" style="stroke:#181818;stroke-width:0.5;" width="134.4219" x="407.2056" y="120.4297"/><text fill="#000000" font-family="sans-serif" font-size="14" lengthAdjust="spacing" textLength="120.4219" x="414.2056" y="140.4248">new: Attachment</text><polygon fill="#181818" points="205.0527,178.8594,215.0527,182.8594,205.0527,186.8594,209.0527,182.8594" style="stroke:#181818;stroke-width:1.0;"/><line style="stroke:#181818;stroke-width:1.0;" x1="36.7588" x2="211.0527" y1="182.8594" y2="182.8594"/><text fill="#000000" font-family="sans-serif" font-size="13" lengthAdjust="spacing" textLength="115.3369" x="43.7588" y="177.7935">refillAttachment()</text><polygon fill="#181818" points="328.1733,207.9922,338.1733,211.9922,328.1733,215.9922,332.1733,211.9922" style="stroke:#181818;stroke-width:1.0;"/><line style="stroke:#181818;stroke-width:1.0;" x1="222.0527" x2="334.1733" y1="211.9922" y2="211.9922"/><text fill="#000000" font-family="sans-serif" font-size="13" lengthAdjust="spacing" textLength="38.8984" x="229.0527" y="206.9263">refill()</text><polygon fill="#181818" points="205.0527,240.125,215.0527,244.125,205.0527,248.125,209.0527,244.125" style="stroke:#181818;stroke-width:1.0;"/><line style="stroke:#181818;stroke-width:1.0;" x1="36.7588" x2="211.0527" y1="244.125" y2="244.125"/><text fill="#000000" font-family="sans-serif" font-size="13" lengthAdjust="spacing" textLength="110.7666" x="43.7588" y="239.0591">buyAttachment()</text><path d="M232,224.9922 L232,249.9922 L451,249.9922 L451,234.9922 L441,224.9922 L232,224.9922 " fill="#FEFFDD" style="stroke:#181818;stroke-width:0.5;"/><path d="M441,224.9922 L441,234.9922 L451,234.9922 L441,224.9922 " fill="#FEFFDD" style="stroke:#181818;stroke-width:0.5;"/><text fill="#000000" font-family="sans-serif" font-size="13" lengthAdjust="spacing" textLength="198.5039" x="238" y="242.0591">Az income attrib&#250;tum cs&#246;kken</text><!--SRC=[VOv13e8m44NtFSM4bIwy024alO1f8XSOwYWDq98oIFHEhanSkELYLamKGdHMC_alxmzgTXwY34lqmvM7MmJOGYOQz6oqQT0oH4qCE-jwLRb-ZDKynXWaC-gY9iiZ88N8O9E2WXXqWVP8Ns1bgLyBr6nEo1HS44PxUXrHo1QohHmHzH9kPJ0coHjFKx6dYUZRwUbWgchIkIWSRVA31k27Ak_E_ppMXTMROy7XxmiOgrrDWCpUvCE3knfqEzpBakoiu0a0]--></g></svg>