<svg xmlns="http://www.w3.org/2000/svg" xmlns:xlink="http://www.w3.org/1999/xlink" contentStyleType="text/css" height="442px" preserveAspectRatio="none" style="width:609px;height:442px;background:#FFFFFF;" version="1.1" viewBox="0 0 609 442" width="609px" zoomAndPan="magnify"><defs/><g><rect fill="#FFFFFF" height="231.4688" style="stroke:#181818;stroke-width:1.0;" width="10" x="156.7397" y="112.4297"/><rect fill="#FFFFFF" height="28" style="stroke:#181818;stroke-width:1.0;" width="10" x="161.7397" y="215.8281"/><rect fill="none" height="146.2031" style="stroke:#000000;stroke-width:1.5;" width="479.374" x="123.1279" y="169.5625"/><line style="stroke:#181818;stroke-width:0.5;stroke-dasharray:5.0,5.0;" x1="48" x2="48" y1="81.2969" y2="361.8984"/><line style="stroke:#181818;stroke-width:0.5;stroke-dasharray:5.0,5.0;" x1="161.1279" x2="161.1279" y1="81.2969" y2="361.8984"/><line style="stroke:#181818;stroke-width:0.5;stroke-dasharray:5.0,5.0;" x1="323.0044" x2="323.0044" y1="81.2969" y2="361.8984"/><text fill="#000000" font-family="sans-serif" font-size="14" lengthAdjust="spacing" textLength="80.0352" x="5" y="77.9951">Buszvezet&#337;</text><ellipse cx="48.0176" cy="13.5" fill="#E2E2F0" rx="8" ry="8" style="stroke:#181818;stroke-width:0.5;"/><path d="M48.0176,21.5 L48.0176,48.5 M35.0176,29.5 L61.0176,29.5 M48.0176,48.5 L35.0176,63.5 M48.0176,48.5 L61.0176,63.5 " fill="none" style="stroke:#181818;stroke-width:0.5;"/><text fill="#000000" font-family="sans-serif" font-size="14" lengthAdjust="spacing" textLength="80.0352" x="5" y="373.8936">Buszvezet&#337;</text><ellipse cx="48.0176" cy="385.6953" fill="#E2E2F0" rx="8" ry="8" style="stroke:#181818;stroke-width:0.5;"/><path d="M48.0176,393.6953 L48.0176,420.6953 M35.0176,401.6953 L61.0176,401.6953 M48.0176,420.6953 L35.0176,435.6953 M48.0176,420.6953 L61.0176,435.6953 " fill="none" style="stroke:#181818;stroke-width:0.5;"/><rect fill="#E2E2F0" height="30.2969" rx="2.5" ry="2.5" style="stroke:#181818;stroke-width:0.5;" width="57.2236" x="133.1279" y="50"/><text fill="#000000" font-family="sans-serif" font-size="14" lengthAdjust="spacing" textLength="43.2236" x="140.1279" y="69.9951">v: Bus</text><rect fill="#E2E2F0" height="30.2969" rx="2.5" ry="2.5" style="stroke:#181818;stroke-width:0.5;" width="57.2236" x="133.1279" y="360.8984"/><text fill="#000000" font-family="sans-serif" font-size="14" lengthAdjust="spacing" textLength="43.2236" x="140.1279" y="380.8936">v: Bus</text><rect fill="#E2E2F0" height="30.2969" rx="2.5" ry="2.5" style="stroke:#181818;stroke-width:0.5;" width="83.4463" x="282.0044" y="50"/><text fill="#000000" font-family="sans-serif" font-size="14" lengthAdjust="spacing" textLength="69.4463" x="289.0044" y="69.9951">j: Junction</text><rect fill="#E2E2F0" height="30.2969" rx="2.5" ry="2.5" style="stroke:#181818;stroke-width:0.5;" width="83.4463" x="282.0044" y="360.8984"/><text fill="#000000" font-family="sans-serif" font-size="14" lengthAdjust="spacing" textLength="69.4463" x="289.0044" y="380.8936">j: Junction</text><rect fill="#FFFFFF" height="231.4688" style="stroke:#181818;stroke-width:1.0;" width="10" x="156.7397" y="112.4297"/><rect fill="#FFFFFF" height="28" style="stroke:#181818;stroke-width:1.0;" width="10" x="161.7397" y="215.8281"/><polygon fill="#181818" points="144.7397,108.4297,154.7397,112.4297,144.7397,116.4297,148.7397,112.4297" style="stroke:#181818;stroke-width:1.0;"/><line style="stroke:#181818;stroke-width:1.0;" x1="48.0176" x2="150.7397" y1="112.4297" y2="112.4297"/><text fill="#000000" font-family="sans-serif" font-size="13" lengthAdjust="spacing" textLength="68.9355" x="55.0176" y="107.3638">nextTurn()</text><line style="stroke:#181818;stroke-width:1.0;" x1="166.7397" x2="208.7397" y1="141.5625" y2="141.5625"/><line style="stroke:#181818;stroke-width:1.0;" x1="208.7397" x2="208.7397" y1="141.5625" y2="154.5625"/><line style="stroke:#181818;stroke-width:1.0;" x1="167.7397" x2="208.7397" y1="154.5625" y2="154.5625"/><polygon fill="#181818" points="177.7397,150.5625,167.7397,154.5625,177.7397,158.5625,173.7397,154.5625" style="stroke:#181818;stroke-width:1.0;"/><text fill="#000000" font-family="sans-serif" font-size="13" lengthAdjust="spacing" textLength="126.4136" x="173.7397" y="136.4966">checkDestination(j)</text><path d="M123.1279,169.5625 L187.5708,169.5625 L187.5708,176.6953 L177.5708,186.6953 L123.1279,186.6953 L123.1279,169.5625 " fill="#EEEEEE" style="stroke:#000000;stroke-width:1.5;"/><rect fill="none" height="146.2031" style="stroke:#000000;stroke-width:1.5;" width="479.374" x="123.1279" y="169.5625"/><text fill="#000000" font-family="sans-serif" font-size="13" font-weight="bold" lengthAdjust="spacing" textLength="19.4429" x="138.1279" y="182.6294">alt</text><text fill="#000000" font-family="sans-serif" font-size="11" font-weight="bold" lengthAdjust="spacing" textLength="394.9312" x="202.5708" y="181.7729">[meg&#233;rkezett a v&#233;g&#225;llom&#225;sra (destination1 vagy destination2)]</text><line style="stroke:#181818;stroke-width:1.0;" x1="171.7397" x2="213.7397" y1="207.8281" y2="207.8281"/><line style="stroke:#181818;stroke-width:1.0;" x1="213.7397" x2="213.7397" y1="207.8281" y2="220.8281"/><line style="stroke:#181818;stroke-width:1.0;" x1="172.7397" x2="213.7397" y1="220.8281" y2="220.8281"/><polygon fill="#181818" points="182.7397,216.8281,172.7397,220.8281,182.7397,224.8281,178.7397,220.8281" style="stroke:#181818;stroke-width:1.0;"/><text fill="#000000" font-family="sans-serif" font-size="13" lengthAdjust="spacing" textLength="83.9858" x="178.7397" y="202.7622">turnAround()</text><path d="M283.9858,195.1953 L283.9858,220.1953 L554.9858,220.1953 L554.9858,205.1953 L544.9858,195.1953 L283.9858,195.1953 " fill="#FEFFDD" style="stroke:#181818;stroke-width:0.5;"/><path d="M544.9858,195.1953 L544.9858,205.1953 L554.9858,205.1953 L544.9858,195.1953 " fill="#FEFFDD" style="stroke:#181818;stroke-width:0.5;"/><text fill="#000000" font-family="sans-serif" font-size="13" lengthAdjust="spacing" textLength="250.2119" x="289.9858" y="212.2622">megcser&#233;li a jelenlegi c&#233;lj&#225;t a m&#225;sikra</text><line style="stroke:#181818;stroke-width:1.0;" x1="166.7397" x2="208.7397" y1="279.9609" y2="279.9609"/><line style="stroke:#181818;stroke-width:1.0;" x1="208.7397" x2="208.7397" y1="279.9609" y2="292.9609"/><line style="stroke:#181818;stroke-width:1.0;" x1="167.7397" x2="208.7397" y1="292.9609" y2="292.9609"/><polygon fill="#181818" points="177.7397,288.9609,167.7397,292.9609,177.7397,296.9609,173.7397,292.9609" style="stroke:#181818;stroke-width:1.0;"/><text fill="#000000" font-family="sans-serif" font-size="13" lengthAdjust="spacing" textLength="127.9878" x="173.7397" y="274.895">addIncome(reward)</text><path d="M322.9878,267.3281 L322.9878,292.3281 L553.9878,292.3281 L553.9878,277.3281 L543.9878,267.3281 L322.9878,267.3281 " fill="#FEFFDD" style="stroke:#181818;stroke-width:0.5;"/><path d="M543.9878,267.3281 L543.9878,277.3281 L553.9878,277.3281 L543.9878,267.3281 " fill="#FEFFDD" style="stroke:#181818;stroke-width:0.5;"/><text fill="#000000" font-family="sans-serif" font-size="13" lengthAdjust="spacing" textLength="210.9009" x="328.9878" y="284.395">a sikeres fordul&#243;&#233;rt j&#225;r&#243; fizets&#233;g</text><line style="stroke:#000000;stroke-width:1.0;stroke-dasharray:2.0,2.0;" x1="123.1279" x2="602.502" y1="301.9609" y2="301.9609"/><text fill="#000000" font-family="sans-serif" font-size="11" font-weight="bold" lengthAdjust="spacing" textLength="161.7183" x="128.1279" y="312.1714">[M&#233;g nem &#233;rte el a v&#233;g&#233;t]</text><polygon fill="#181818" points="59.0176,339.8984,49.0176,343.8984,59.0176,347.8984,55.0176,343.8984" style="stroke:#181818;stroke-width:1.0;"/><line style="stroke:#181818;stroke-width:1.0;stroke-dasharray:2.0,2.0;" x1="53.0176" x2="160.7397" y1="343.8984" y2="343.8984"/><text fill="#000000" font-family="sans-serif" font-size="13" lengthAdjust="spacing" textLength="84.7222" x="65.0176" y="338.8325">turn_finished</text><!--SRC=[RP6nJiCm48RtFCMfKpemm9W1YOY5IcoeAphPrzIfOrVs9K3VWaVecBcFOF5UN5BQj8073tV__VVvDohs0MPb6tSTxOY_FcU04SfiYu6DCbjq3BEk056CdULrfovWqJh5nhknlSYo4cxkOGa5E7hdbpQuV9wXA3faad6Gipn9r9hKvf4Y6uU3HrxFHy5ueMLeg4fzs0ne30XTwgkqjzOtQHy3GgwdsLleiFg0YyhTqUniUBMQXUmX-DRfV9BzuZmTvwKKJBNcOY1IaKBghH6WcYmvIvK19PKwxGVA0Svi0fuzDFrZ_1S9jNvooZUK1th3e2UkIm04CQT04LO-wDQcWoJ48Bj3Ei3AI5HHOhhUGpOIF4jPVgM1OO2aTagqvwF8wIbzeHAiyYUfrvLn9gv9PvTl-GO0]--></g></svg>