<svg xmlns="http://www.w3.org/2000/svg" xmlns:xlink="http://www.w3.org/1999/xlink" contentStyleType="text/css" height="487px" preserveAspectRatio="none" style="width:735px;height:487px;background:#FFFFFF;" version="1.1" viewBox="0 0 735 487" width="735px" zoomAndPan="magnify"><defs/><g><rect fill="#FFFFFF" height="273.5391" style="stroke:#181818;stroke-width:1.0;" width="10" x="120.0391" y="115.4297"/><rect fill="#FFFFFF" height="32.1328" style="stroke:#181818;stroke-width:1.0;" width="10" x="315.3286" y="150.5625"/><rect fill="#FFFFFF" height="29.1328" style="stroke:#181818;stroke-width:1.0;" width="10" x="415.0981" y="235.9609"/><rect fill="none" height="178.2734" style="stroke:#000000;stroke-width:1.5;" width="413.7622" x="64.3823" y="197.6953"/><rect fill="none" height="74.0703" style="stroke:#000000;stroke-width:1.5;" width="256.6519" x="74.3823" y="280.0938"/><line style="stroke:#181818;stroke-width:0.5;stroke-dasharray:5.0,5.0;" x1="32" x2="32" y1="81.2969" y2="406.9688"/><line style="stroke:#181818;stroke-width:0.5;stroke-dasharray:5.0,5.0;" x1="124.3823" x2="124.3823" y1="81.2969" y2="406.9688"/><line style="stroke:#181818;stroke-width:0.5;stroke-dasharray:5.0,5.0;" x1="319.6055" x2="319.6055" y1="81.2969" y2="406.9688"/><line style="stroke:#181818;stroke-width:0.5;stroke-dasharray:5.0,5.0;" x1="420.0518" x2="420.0518" y1="81.2969" y2="406.9688"/><text fill="#000000" font-family="sans-serif" font-size="14" lengthAdjust="spacing" textLength="48.207" x="5" y="77.9951">Vezet&#337;</text><ellipse cx="32.1035" cy="13.5" fill="#E2E2F0" rx="8" ry="8" style="stroke:#181818;stroke-width:0.5;"/><path d="M32.1035,21.5 L32.1035,48.5 M19.1035,29.5 L45.1035,29.5 M32.1035,48.5 L19.1035,63.5 M32.1035,48.5 L45.1035,63.5 " fill="none" style="stroke:#181818;stroke-width:0.5;"/><text fill="#000000" font-family="sans-serif" font-size="14" lengthAdjust="spacing" textLength="48.207" x="5" y="418.9639">Vezet&#337;</text><ellipse cx="32.1035" cy="430.7656" fill="#E2E2F0" rx="8" ry="8" style="stroke:#181818;stroke-width:0.5;"/><path d="M32.1035,438.7656 L32.1035,465.7656 M19.1035,446.7656 L45.1035,446.7656 M32.1035,465.7656 L19.1035,480.7656 M32.1035,465.7656 L45.1035,480.7656 " fill="none" style="stroke:#181818;stroke-width:0.5;"/><rect fill="#E2E2F0" height="30.2969" rx="2.5" ry="2.5" style="stroke:#181818;stroke-width:0.5;" width="81.3135" x="84.3823" y="50"/><text fill="#000000" font-family="sans-serif" font-size="14" lengthAdjust="spacing" textLength="67.3135" x="91.3823" y="69.9951">v: vehicle</text><rect fill="#E2E2F0" height="30.2969" rx="2.5" ry="2.5" style="stroke:#181818;stroke-width:0.5;" width="81.3135" x="84.3823" y="405.9688"/><text fill="#000000" font-family="sans-serif" font-size="14" lengthAdjust="spacing" textLength="67.3135" x="91.3823" y="425.9639">v: vehicle</text><rect fill="#E2E2F0" height="30.2969" rx="2.5" ry="2.5" style="stroke:#181818;stroke-width:0.5;" width="83.4463" x="278.6055" y="50"/><text fill="#000000" font-family="sans-serif" font-size="14" lengthAdjust="spacing" textLength="69.4463" x="285.6055" y="69.9951">j: Junction</text><rect fill="#E2E2F0" height="30.2969" rx="2.5" ry="2.5" style="stroke:#181818;stroke-width:0.5;" width="83.4463" x="278.6055" y="405.9688"/><text fill="#000000" font-family="sans-serif" font-size="14" lengthAdjust="spacing" textLength="69.4463" x="285.6055" y="425.9639">j: Junction</text><rect fill="#E2E2F0" height="30.2969" rx="2.5" ry="2.5" style="stroke:#181818;stroke-width:0.5;" width="96.0928" x="372.0518" y="50"/><text fill="#000000" font-family="sans-serif" font-size="14" lengthAdjust="spacing" textLength="82.0928" x="379.0518" y="69.9951">nextL: Lane</text><rect fill="#E2E2F0" height="30.2969" rx="2.5" ry="2.5" style="stroke:#181818;stroke-width:0.5;" width="96.0928" x="372.0518" y="405.9688"/><text fill="#000000" font-family="sans-serif" font-size="14" lengthAdjust="spacing" textLength="82.0928" x="379.0518" y="425.9639">nextL: Lane</text><rect fill="#FFFFFF" height="273.5391" style="stroke:#181818;stroke-width:1.0;" width="10" x="120.0391" y="115.4297"/><rect fill="#FFFFFF" height="32.1328" style="stroke:#181818;stroke-width:1.0;" width="10" x="315.3286" y="150.5625"/><rect fill="#FFFFFF" height="29.1328" style="stroke:#181818;stroke-width:1.0;" width="10" x="415.0981" y="235.9609"/><polygon fill="#181818" points="108.0391,111.4297,118.0391,115.4297,108.0391,119.4297,112.0391,115.4297" style="stroke:#181818;stroke-width:1.0;"/><line style="stroke:#181818;stroke-width:1.0;" x1="32.1035" x2="114.0391" y1="115.4297" y2="115.4297"/><text fill="#000000" font-family="sans-serif" font-size="13" lengthAdjust="spacing" textLength="68.9355" x="39.1035" y="110.3638">nextTurn()</text><path d="M135,96.2969 L135,121.2969 L316,121.2969 L316,106.2969 L306,96.2969 L135,96.2969 " fill="#FEFFDD" style="stroke:#181818;stroke-width:0.5;"/><path d="M306,96.2969 L306,106.2969 L316,106.2969 L306,96.2969 " fill="#FEFFDD" style="stroke:#181818;stroke-width:0.5;"/><text fill="#000000" font-family="sans-serif" font-size="13" lengthAdjust="spacing" textLength="160.5767" x="141" y="113.3638">a j&#225;rm&#369; a s&#225;v v&#233;g&#233;re &#233;rt</text><polygon fill="#181818" points="303.3286,146.5625,313.3286,150.5625,303.3286,154.5625,307.3286,150.5625" style="stroke:#181818;stroke-width:1.0;"/><line style="stroke:#181818;stroke-width:1.0;" x1="130.0391" x2="309.3286" y1="150.5625" y2="150.5625"/><text fill="#000000" font-family="sans-serif" font-size="13" lengthAdjust="spacing" textLength="166.2896" x="137.0391" y="145.4966">getNextLane(destination)</text><path d="M330,131.4297 L330,156.4297 L728,156.4297 L728,141.4297 L718,131.4297 L330,131.4297 " fill="#FEFFDD" style="stroke:#181818;stroke-width:0.5;"/><path d="M718,131.4297 L718,141.4297 L728,141.4297 L718,131.4297 " fill="#FEFFDD" style="stroke:#181818;stroke-width:0.5;"/><text fill="#000000" font-family="sans-serif" font-size="13" lengthAdjust="spacing" textLength="377.7554" x="336" y="148.4966">a csom&#243;pont megkeresi a c&#233;l fel&#233; vezet&#337; k&#246;vetkez&#337; s&#225;vot</text><polygon fill="#181818" points="141.0391,178.6953,131.0391,182.6953,141.0391,186.6953,137.0391,182.6953" style="stroke:#181818;stroke-width:1.0;"/><line style="stroke:#181818;stroke-width:1.0;stroke-dasharray:2.0,2.0;" x1="135.0391" x2="319.3286" y1="182.6953" y2="182.6953"/><text fill="#000000" font-family="sans-serif" font-size="13" lengthAdjust="spacing" textLength="36.2705" x="147.0391" y="177.6294">nextL</text><path d="M64.3823,197.6953 L128.8252,197.6953 L128.8252,204.8281 L118.8252,214.8281 L64.3823,214.8281 L64.3823,197.6953 " fill="#EEEEEE" style="stroke:#000000;stroke-width:1.5;"/><rect fill="none" height="178.2734" style="stroke:#000000;stroke-width:1.5;" width="413.7622" x="64.3823" y="197.6953"/><text fill="#000000" font-family="sans-serif" font-size="13" font-weight="bold" lengthAdjust="spacing" textLength="19.4429" x="79.3823" y="210.7622">alt</text><text fill="#000000" font-family="sans-serif" font-size="11" font-weight="bold" lengthAdjust="spacing" textLength="166.665" x="143.8252" y="209.9058">[tal&#225;lt &#233;rv&#233;nyes &#250;tvonalat]</text><polygon fill="#181818" points="403.0981,231.9609,413.0981,235.9609,403.0981,239.9609,407.0981,235.9609" style="stroke:#181818;stroke-width:1.0;"/><line style="stroke:#181818;stroke-width:1.0;" x1="130.0391" x2="409.0981" y1="235.9609" y2="235.9609"/><text fill="#000000" font-family="sans-serif" font-size="13" lengthAdjust="spacing" textLength="175.2271" x="137.0391" y="230.895">pushVehicle(v, timestamp)</text><polygon fill="#181818" points="141.0391,261.0938,131.0391,265.0938,141.0391,269.0938,137.0391,265.0938" style="stroke:#181818;stroke-width:1.0;"/><line style="stroke:#181818;stroke-width:1.0;stroke-dasharray:2.0,2.0;" x1="135.0391" x2="419.0981" y1="265.0938" y2="265.0938"/><text fill="#000000" font-family="sans-serif" font-size="13" lengthAdjust="spacing" textLength="92.8979" x="147.0391" y="260.0278">success (bool)</text><path d="M74.3823,280.0938 L138.8252,280.0938 L138.8252,287.2266 L128.8252,297.2266 L74.3823,297.2266 L74.3823,280.0938 " fill="#EEEEEE" style="stroke:#000000;stroke-width:1.5;"/><rect fill="none" height="74.0703" style="stroke:#000000;stroke-width:1.5;" width="256.6519" x="74.3823" y="280.0938"/><text fill="#000000" font-family="sans-serif" font-size="13" font-weight="bold" lengthAdjust="spacing" textLength="19.4429" x="89.3823" y="293.1606">alt</text><text fill="#000000" font-family="sans-serif" font-size="11" font-weight="bold" lengthAdjust="spacing" textLength="110.0967" x="153.8252" y="292.3042">[success == true]</text><line style="stroke:#181818;stroke-width:1.0;" x1="130.0391" x2="172.0391" y1="318.3594" y2="318.3594"/><line style="stroke:#181818;stroke-width:1.0;" x1="172.0391" x2="172.0391" y1="318.3594" y2="331.3594"/><line style="stroke:#181818;stroke-width:1.0;" x1="131.0391" x2="172.0391" y1="331.3594" y2="331.3594"/><polygon fill="#181818" points="141.0391,327.3594,131.0391,331.3594,141.0391,335.3594,137.0391,331.3594" style="stroke:#181818;stroke-width:1.0;"/><text fill="#000000" font-family="sans-serif" font-size="13" lengthAdjust="spacing" textLength="134.2847" x="137.0391" y="313.2935">currentLane = nextL</text><line style="stroke:#000000;stroke-width:1.0;stroke-dasharray:2.0,2.0;" x1="74.3823" x2="331.0342" y1="340.3594" y2="340.3594"/><text fill="#000000" font-family="sans-serif" font-size="11" font-weight="bold" lengthAdjust="spacing" textLength="251.6519" x="79.3823" y="350.5698">[success == false (baleset van a s&#225;von)]</text><line style="stroke:#000000;stroke-width:1.0;stroke-dasharray:2.0,2.0;" x1="64.3823" x2="478.1445" y1="362.1641" y2="362.1641"/><text fill="#000000" font-family="sans-serif" font-size="11" font-weight="bold" lengthAdjust="spacing" textLength="168.1313" x="69.3823" y="372.3745">[nincs j&#225;rhat&#243; &#250;t a c&#233;l fel&#233;]</text><polygon fill="#181818" points="43.1035,384.9688,33.1035,388.9688,43.1035,392.9688,39.1035,388.9688" style="stroke:#181818;stroke-width:1.0;"/><line style="stroke:#181818;stroke-width:1.0;stroke-dasharray:2.0,2.0;" x1="37.1035" x2="124.0391" y1="388.9688" y2="388.9688"/><!--SRC=[RLAxZjim4Epr5GjNCf3x0G4Ea5OGKXdgUVAUJ9iY1N95vFmNQTEvL1aSa28jSV-L9HszacCXaLpkpEpEYeQCXLsDDwJtxpiG3evPBop9HlP24-ny0HxFib6OelKsUYcW77H3qkWKBhTXZT-eAg0I-f5TPTaHdZv33GN4s76mEjzdWW6y86Hqu9K-sl3PolPC1GYuXBljtd_opeMx1n_6DemMWJ-qvDGHksJi5kbhf6RU_8IEf1PHuZwzcjdATFoVh76c2s-zuGewRAzeqSbu7KO5BwZ2o1r9_O9h-EMHhdZZVHHcQ8OiuMbLQ9NkJ_WFzqEF8Y2Xmft_N0_Nfb_HGVXDtcYXn8APwgiOiX_SkNwualjFGBBZ8aNNx-UdCr4rNyLLpQhSq3Je7EJFngWbRoLnoLnGMUAKU3W0sG4tyFLaRZDOYpeP08TL1-92vN2DyYBYHVui53eay4B_jNaox2ENlZm6GU6D9yCBcB8xAMXf6EhJjeZ4hQLkN1gfiw3m5ZkziVV3iGW_BfQxOjdwC3fMsRxo6Dwjk1gMuBA9RXf4RiGnMtMp_WC0]--></g></svg>