<svg xmlns="http://www.w3.org/2000/svg" xmlns:xlink="http://www.w3.org/1999/xlink" contentStyleType="text/css" height="527px" preserveAspectRatio="none" style="width:642px;height:527px;background:#FFFFFF;" version="1.1" viewBox="0 0 642 527" width="642px" zoomAndPan="magnify"><defs/><g><rect fill="#FFFFFF" height="324.7344" style="stroke:#181818;stroke-width:1.0;" width="10" x="232.8271" y="112.4297"/><rect fill="#FFFFFF" height="30" style="stroke:#181818;stroke-width:1.0;" width="10" x="400.3521" y="200.6953"/><rect fill="#FFFFFF" height="30" style="stroke:#181818;stroke-width:1.0;" width="10" x="400.3521" y="283.9609"/><rect fill="#FFFFFF" height="30" style="stroke:#181818;stroke-width:1.0;" width="10" x="550.981" y="141.5625"/><rect fill="none" height="184.4688" style="stroke:#000000;stroke-width:1.5;" width="465.6143" x="10" y="245.6953"/><line style="stroke:#181818;stroke-width:0.5;stroke-dasharray:5.0,5.0;" x1="51" x2="51" y1="81.2969" y2="447.1641"/><line style="stroke:#181818;stroke-width:0.5;stroke-dasharray:5.0,5.0;" x1="237.7388" x2="237.7388" y1="81.2969" y2="447.1641"/><line style="stroke:#181818;stroke-width:0.5;stroke-dasharray:5.0,5.0;" x1="405.0898" x2="405.0898" y1="81.2969" y2="447.1641"/><line style="stroke:#181818;stroke-width:0.5;stroke-dasharray:5.0,5.0;" x1="555.6143" x2="555.6143" y1="81.2969" y2="447.1641"/><text fill="#000000" font-family="sans-serif" font-size="14" lengthAdjust="spacing" textLength="57.5176" x="20" y="77.9951">Takar&#237;t&#243;</text><ellipse cx="51.7588" cy="13.5" fill="#E2E2F0" rx="8" ry="8" style="stroke:#181818;stroke-width:0.5;"/><path d="M51.7588,21.5 L51.7588,48.5 M38.7588,29.5 L64.7588,29.5 M51.7588,48.5 L38.7588,63.5 M51.7588,48.5 L64.7588,63.5 " fill="none" style="stroke:#181818;stroke-width:0.5;"/><text fill="#000000" font-family="sans-serif" font-size="14" lengthAdjust="spacing" textLength="57.5176" x="20" y="459.1592">Takar&#237;t&#243;</text><ellipse cx="51.7588" cy="470.9609" fill="#E2E2F0" rx="8" ry="8" style="stroke:#181818;stroke-width:0.5;"/><path d="M51.7588,478.9609 L51.7588,505.9609 M38.7588,486.9609 L64.7588,486.9609 M51.7588,505.9609 L38.7588,520.9609 M51.7588,505.9609 L64.7588,520.9609 " fill="none" style="stroke:#181818;stroke-width:0.5;"/><rect fill="#E2E2F0" height="30.2969" rx="2.5" ry="2.5" style="stroke:#181818;stroke-width:0.5;" width="102.1768" x="186.7388" y="50"/><text fill="#000000" font-family="sans-serif" font-size="14" lengthAdjust="spacing" textLength="88.1768" x="193.7388" y="69.9951">p: SnowPlow</text><rect fill="#E2E2F0" height="30.2969" rx="2.5" ry="2.5" style="stroke:#181818;stroke-width:0.5;" width="102.1768" x="186.7388" y="446.1641"/><text fill="#000000" font-family="sans-serif" font-size="14" lengthAdjust="spacing" textLength="88.1768" x="193.7388" y="466.1592">p: SnowPlow</text><rect fill="#E2E2F0" height="30.2969" rx="2.5" ry="2.5" style="stroke:#181818;stroke-width:0.5;" width="120.5244" x="345.0898" y="50"/><text fill="#000000" font-family="sans-serif" font-size="14" lengthAdjust="spacing" textLength="106.5244" x="352.0898" y="69.9951">owner: Cleaner</text><rect fill="#E2E2F0" height="30.2969" rx="2.5" ry="2.5" style="stroke:#181818;stroke-width:0.5;" width="120.5244" x="345.0898" y="446.1641"/><text fill="#000000" font-family="sans-serif" font-size="14" lengthAdjust="spacing" textLength="106.5244" x="352.0898" y="466.1592">owner: Cleaner</text><rect fill="#E2E2F0" height="30.2969" rx="2.5" ry="2.5" style="stroke:#181818;stroke-width:0.5;" width="160.7334" x="475.6143" y="50"/><text fill="#000000" font-family="sans-serif" font-size="14" lengthAdjust="spacing" textLength="146.7334" x="482.6143" y="69.9951">newAttr: Attachment</text><rect fill="#E2E2F0" height="30.2969" rx="2.5" ry="2.5" style="stroke:#181818;stroke-width:0.5;" width="160.7334" x="475.6143" y="446.1641"/><text fill="#000000" font-family="sans-serif" font-size="14" lengthAdjust="spacing" textLength="146.7334" x="482.6143" y="466.1592">newAttr: Attachment</text><rect fill="#FFFFFF" height="324.7344" style="stroke:#181818;stroke-width:1.0;" width="10" x="232.8271" y="112.4297"/><rect fill="#FFFFFF" height="30" style="stroke:#181818;stroke-width:1.0;" width="10" x="400.3521" y="200.6953"/><rect fill="#FFFFFF" height="30" style="stroke:#181818;stroke-width:1.0;" width="10" x="400.3521" y="283.9609"/><rect fill="#FFFFFF" height="30" style="stroke:#181818;stroke-width:1.0;" width="10" x="550.981" y="141.5625"/><polygon fill="#181818" points="220.8271,108.4297,230.8271,112.4297,220.8271,116.4297,224.8271,112.4297" style="stroke:#181818;stroke-width:1.0;"/><line style="stroke:#181818;stroke-width:1.0;" x1="51.7588" x2="226.8271" y1="112.4297" y2="112.4297"/><text fill="#000000" font-family="sans-serif" font-size="13" lengthAdjust="spacing" textLength="162.0684" x="58.7588" y="107.3638">buyAttachment(newAttr)</text><polygon fill="#181818" points="538.981,137.5625,548.981,141.5625,538.981,145.5625,542.981,141.5625" style="stroke:#181818;stroke-width:1.0;"/><line style="stroke:#181818;stroke-width:1.0;" x1="242.8271" x2="544.981" y1="141.5625" y2="141.5625"/><text fill="#000000" font-family="sans-serif" font-size="13" lengthAdjust="spacing" textLength="114.9434" x="249.8271" y="136.4966">price = getPrice()</text><polygon fill="#181818" points="388.3521,196.6953,398.3521,200.6953,388.3521,204.6953,392.3521,200.6953" style="stroke:#181818;stroke-width:1.0;"/><line style="stroke:#181818;stroke-width:1.0;" x1="242.8271" x2="394.3521" y1="200.6953" y2="200.6953"/><text fill="#000000" font-family="sans-serif" font-size="13" lengthAdjust="spacing" textLength="138.5249" x="249.8271" y="195.6294">balance = getScore()</text><path d="M10,245.6953 L74.4429,245.6953 L74.4429,252.8281 L64.4429,262.8281 L10,262.8281 L10,245.6953 " fill="#EEEEEE" style="stroke:#000000;stroke-width:1.5;"/><rect fill="none" height="184.4688" style="stroke:#000000;stroke-width:1.5;" width="465.6143" x="10" y="245.6953"/><text fill="#000000" font-family="sans-serif" font-size="13" font-weight="bold" lengthAdjust="spacing" textLength="19.4429" x="25" y="258.7622">alt</text><text fill="#000000" font-family="sans-serif" font-size="11" font-weight="bold" lengthAdjust="spacing" textLength="115.5" x="89.4429" y="257.9058">[balance &gt;= price]</text><polygon fill="#181818" points="388.3521,279.9609,398.3521,283.9609,388.3521,287.9609,392.3521,283.9609" style="stroke:#181818;stroke-width:1.0;"/><line style="stroke:#181818;stroke-width:1.0;" x1="242.8271" x2="394.3521" y1="283.9609" y2="283.9609"/><text fill="#000000" font-family="sans-serif" font-size="13" lengthAdjust="spacing" textLength="119.4946" x="249.8271" y="278.895">addIncome(-price)</text><path d="M247,326.9609 L247,351.9609 L451,351.9609 L451,336.9609 L441,326.9609 L247,326.9609 " fill="#FEFFDD" style="stroke:#181818;stroke-width:0.5;"/><path d="M441,326.9609 L441,336.9609 L451,336.9609 L441,326.9609 " fill="#FEFFDD" style="stroke:#181818;stroke-width:0.5;"/><text fill="#000000" font-family="sans-serif" font-size="13" lengthAdjust="spacing" textLength="183.3965" x="253" y="344.0278">p.owned_tools.add(newAttr)</text><polygon fill="#181818" points="62.7588,374.2266,52.7588,378.2266,62.7588,382.2266,58.7588,378.2266" style="stroke:#181818;stroke-width:1.0;"/><line style="stroke:#181818;stroke-width:1.0;stroke-dasharray:2.0,2.0;" x1="56.7588" x2="231.8271" y1="378.2266" y2="378.2266"/><text fill="#000000" font-family="sans-serif" font-size="13" lengthAdjust="spacing" textLength="26.6792" x="68.7588" y="373.1606">true</text><line style="stroke:#000000;stroke-width:1.0;stroke-dasharray:2.0,2.0;" x1="10" x2="475.6143" y1="387.2266" y2="387.2266"/><text fill="#000000" font-family="sans-serif" font-size="11" font-weight="bold" lengthAdjust="spacing" textLength="124.8564" x="15" y="397.437">[Nincs el&#233;g fedezet]</text><polygon fill="#181818" points="62.7588,418.1641,52.7588,422.1641,62.7588,426.1641,58.7588,422.1641" style="stroke:#181818;stroke-width:1.0;"/><line style="stroke:#181818;stroke-width:1.0;stroke-dasharray:2.0,2.0;" x1="56.7588" x2="231.8271" y1="422.1641" y2="422.1641"/><text fill="#000000" font-family="sans-serif" font-size="13" lengthAdjust="spacing" textLength="30.9258" x="68.7588" y="417.0981">false</text><!--SRC=[RPBDRe904CVlFCN4IpMfFe299ePJBms9tflfCWAoxfBT4I9lux67dfhq1NYn3c2XMZcmmyx7_pSpe6BhOBB375tpoStN1D33BYZGSQQo0Wt3f5Z2rjWgqhRgtD6jsrQ6t192JIX65n7UHXYgDimI8szKwP4CTs6R8DZ1V0qHBE7zT1wzqsl6B435MObC8WhoFC7f07iw03hiBg8sVoFvXSiKmGeIugWrfxFEF-Hlki-OxYwkLH5KZm-KdCbeIiXG3ffoSZ7Lv6bK2rjQr6X-zRRAkdzwuRrUEEgXvg72UjMZTuuUncUYIXvAzEWq-cV1AyZKB3obDOTJFlAorKFcG8Tn_6AKFT9qtjMU3I5tD0yH1yoU9hLrZHZtgZ9wOZbJcrjs5iZNUVDTKvPIFUGOAxLSbgGCTW-Hx6RH_YFn6rkh_KBenlt-4vGcf8kTTC7kr4-5j2TupOpoOZOVYL2qE-7xaJ5fCb0s5zzSd9RZGT4zwkikoSJ1dzwZ7m00]--></g></svg>